<?xml version="1.0" encoding="UTF-8" standalone="no"?>
<svg
   xmlns:dc="http://purl.org/dc/elements/1.1/"
   xmlns:cc="http://creativecommons.org/ns#"
   xmlns:rdf="http://www.w3.org/1999/02/22-rdf-syntax-ns#"
   xmlns:svg="http://www.w3.org/2000/svg"
   xmlns="http://www.w3.org/2000/svg"
   xmlns:sodipodi="http://sodipodi.sourceforge.net/DTD/sodipodi-0.dtd"
   xmlns:inkscape="http://www.inkscape.org/namespaces/inkscape"
   viewBox="0 0 348 348"
   fill="none"
   version="1.1"
   id="svg6"
   sodipodi:docname="Security Council.svg"
   inkscape:version="1.0.1 (3bc2e813f5, 2020-09-07)">
  <metadata
     id="metadata12">
    <rdf:RDF>
      <cc:Work
         rdf:about="">
        <dc:format>image/svg+xml</dc:format>
        <dc:type
           rdf:resource="http://purl.org/dc/dcmitype/StillImage" />
      </cc:Work>
    </rdf:RDF>
  </metadata>
  <defs
     id="defs10" />
  <sodipodi:namedview
     pagecolor="#ffffff"
     bordercolor="#666666"
     borderopacity="1"
     objecttolerance="10"
     gridtolerance="10"
     guidetolerance="10"
     inkscape:pageopacity="0"
     inkscape:pageshadow="2"
     inkscape:window-width="1366"
     inkscape:window-height="705"
     id="namedview8"
     showgrid="false"
     inkscape:zoom="1.545977"
     inkscape:cx="174"
     inkscape:cy="174"
     inkscape:window-x="-8"
     inkscape:window-y="-8"
     inkscape:window-maximized="1"
     inkscape:current-layer="svg6" />
  <path
     d="M5.079 5.776h336.913v337.67H5.08z"
     stroke-width="2"
     stroke="#000"
     id="path2" />
  <path
     d="M282.734 40.554c0-8.376 6.966-15.165 15.56-15.165 4.126 0 8.084 1.597 11.001 4.441 2.918 2.844 4.558 6.702 4.558 10.724 0 8.376-6.966 15.165-15.56 15.165-8.593 0-15.559-6.79-15.559-15.165z"
     stroke-width="2"
     stroke="#000"
     id="path4" />
  <path
     id="rect14"
     style="fill:#ffffff;fill-opacity:1;stroke:#000000;stroke-width:1.98457;stroke-opacity:1"
     d="m 115.53143,251.54668 h 211.00739 v 76.25711 H 115.53143 Z" />
  <path
     id="rect14-0"
     style="fill:#ffffff;fill-opacity:1;stroke:#000000;stroke-width:0.992318;stroke-opacity:1"
     d="m 15.929537,22.178288 h 83.9253 v 47.934741 h -83.9253 z" />
  <path
     id="rect14-0-4"
     style="fill:#ffffff;fill-opacity:1;stroke:#000000;stroke-width:0.992318;stroke-opacity:1"
     d="M 15.606123,85.229652 H 99.531424 V 133.16439 H 15.606123 Z" />
  <path
     id="rect14-0-45"
     style="fill:#ffffff;fill-opacity:1;stroke:#000000;stroke-width:0.992318;stroke-opacity:1"
     d="m 15.606123,151.02892 h 83.925301 v 47.93474 H 15.606123 Z" />
  <path
     id="rect14-0-1"
     style="fill:#ffffff;fill-opacity:1;stroke:#000000;stroke-width:0.992318;stroke-opacity:1"
     d="m 15.606125,216.41925 h 83.9253 v 47.93474 h -83.9253 z" />
  <path
     id="rect14-0-2"
     style="fill:#ffffff;fill-opacity:1;stroke:#000000;stroke-width:0.992318;stroke-opacity:1"
     d="m 15.606122,279.86905 h 83.925301 v 47.93474 H 15.606122 Z" />
  <path
     id="path887"
     style="fill:#ffffff;fill-opacity:1;stroke:#000000;stroke-width:1.32779;stroke-opacity:1"
     d="m 263.97921,104.97768 a 39.336102,39.336102 0 0 1 -39.3361,39.3361 39.336102,39.336102 0 0 1 -39.3361,-39.3361 39.336102,39.336102 0 0 1 39.3361,-39.336105 39.336102,39.336102 0 0 1 39.3361,39.336105 z" />
  <path
     id="path887-1"
     style="fill:#ffffff;fill-opacity:1;stroke:#000000;stroke-width:1.32779;stroke-opacity:1"
     d="m 211.3956,187.58363 a 39.336102,39.336102 0 0 1 -39.33611,39.3361 39.336102,39.336102 0 0 1 -39.3361,-39.3361 39.336102,39.336102 0 0 1 39.3361,-39.3361 39.336102,39.336102 0 0 1 39.33611,39.3361 z" />
  <path
     id="path887-16"
     style="fill:#ffffff;fill-opacity:1;stroke:#000000;stroke-width:1.32779;stroke-opacity:1"
     d="m 319.41789,186.28996 a 39.336102,39.336102 0 0 1 -39.3361,39.3361 39.336102,39.336102 0 0 1 -39.3361,-39.3361 39.336102,39.336102 0 0 1 39.3361,-39.3361 39.336102,39.336102 0 0 1 39.3361,39.3361 z" />
  <g
     aria-label="88"
     id="text935"
     style="font-size:71.6233px;line-height:1.25;font-family:Digital-7;-inkscape-font-specification:Digital-7;fill:#b3b3b3;stroke-width:1.79058">
    <path
       d="m 153.97117,36.051821 2.60448,2.604484 -2.60448,2.604483 h -16.92914 l -2.60449,-2.604483 2.60449,-2.604484 z m 3.90672,3.255604 1.30225,1.302242 v 18.231385 q -0.65113,2.604484 -3.25561,3.255605 L 153.97117,56.88769 V 43.214151 Z m -3.2556,22.789232 h -19.53363 q -2.60448,-0.651121 -3.2556,-3.255605 l 5.20897,-1.953362 h 15.6269 z M 131.83306,57.538811 V 40.609667 l 1.30224,-1.302242 3.90673,3.906726 v 12.371297 z m 20.83587,-37.113892 h -15.56179 l -5.20897,-1.953362 q 0.65112,-2.604484 3.2556,-3.255605 h 19.46852 z m -15.6269,1.302242 v 12.371297 l -3.90673,3.906726 -1.30224,-1.302242 V 19.773799 Z m 16.92914,12.371297 V 20.424919 l 1.95336,-5.208967 q 2.60448,0.651121 3.25561,3.255605 v 18.231385 l -1.30225,1.302242 z"
       style="stroke-width:1.79058"
       id="path966" />
    <path
       d="m 187.82942,36.051821 2.60449,2.604484 -2.60449,2.604483 h -16.92914 l -2.60448,-2.604483 2.60448,-2.604484 z m 3.90673,3.255604 1.30224,1.302242 v 18.231385 q -0.65112,2.604484 -3.25561,3.255605 L 187.82942,56.88769 V 43.214151 Z m -3.25561,22.789232 h -19.53362 q -2.60449,-0.651121 -3.25561,-3.255605 l 5.20897,-1.953362 h 15.6269 z M 165.69131,57.538811 V 40.609667 l 1.30224,-1.302242 3.90673,3.906726 v 12.371297 z m 20.83587,-37.113892 h -15.56179 l -5.20897,-1.953362 q 0.65112,-2.604484 3.25561,-3.255605 h 19.46851 z m -15.6269,1.302242 v 12.371297 l -3.90673,3.906726 -1.30224,-1.302242 V 19.773799 Z m 16.92914,12.371297 V 20.424919 l 1.95336,-5.208967 q 2.60449,0.651121 3.25561,3.255605 v 18.231385 l -1.30224,1.302242 z"
       style="stroke-width:1.79058"
       id="path968" />
  </g>
  <g
     aria-label="69"
     id="text935-0"
     style="font-size:71.6233px;line-height:1.25;font-family:Digital-7;-inkscape-font-specification:Digital-7;text-align:start;text-anchor:start;fill:#000000;stroke-width:1.79058">
    <path
       d="m 153.9917,36.205927 2.60448,2.604484 -2.60448,2.604483 h -16.92914 l -2.60449,-2.604483 2.60449,-2.604484 z m 3.90672,3.255605 1.30225,1.302241 v 18.231385 q -0.65113,2.604484 -3.25561,3.255605 L 153.9917,57.041796 V 43.368257 Z m -3.2556,22.789231 h -19.53363 q -2.60448,-0.651121 -3.2556,-3.255605 l 5.20897,-1.953362 h 15.6269 z M 131.85359,57.692917 V 40.763773 l 1.30224,-1.302241 3.90673,3.906725 v 12.371297 z m 22.78923,-37.113891 h -17.51515 l -5.20897,-1.953363 q 0.65112,-2.604484 3.2556,-3.255605 h 21.42188 z m -17.58026,1.302241 v 12.371297 l -3.90673,3.906726 -1.30224,-1.302242 V 19.927905 Z"
       style="text-align:center;text-anchor:middle;fill:#000000;stroke-width:1.79058"
       id="path961" />
    <path
       d="m 187.84995,36.205927 2.60449,2.604484 -2.60449,2.604483 h -16.92914 l -2.60448,-2.604483 2.60448,-2.604484 z m 3.90673,3.255605 1.30224,1.302241 v 18.231385 q -0.65112,2.604484 -3.25561,3.255605 l -1.95336,-5.208967 V 43.368257 Z m -3.25561,22.789231 h -19.53362 q -2.60449,-0.651121 -3.25561,-3.255605 l 5.20897,-1.953362 h 15.6269 z m -1.95336,-41.671737 h -15.56179 l -5.20897,-1.953363 q 0.65112,-2.604484 3.25561,-3.255605 h 19.46851 z m -15.6269,1.302241 v 12.371297 l -3.90673,3.906726 -1.30224,-1.302242 V 19.927905 Z m 16.92914,12.371297 V 20.579026 l 1.95336,-5.208968 q 2.60449,0.651121 3.25561,3.255605 v 18.231385 l -1.30224,1.302242 z"
       style="text-align:center;text-anchor:middle;fill:#000000;stroke-width:1.79058"
       id="path963" />
  </g>
</svg>
